<?xml version="1.0" standalone="no"?>
<svg version="1.0" xmlns="http://www.w3.org/2000/svg"
 width="217.000000pt" height="218.000000pt" viewBox="0 0 217.000000 218.000000"
 preserveAspectRatio="xMidYMid meet">

<g transform="translate(0.000000,218.000000) scale(0.100000,-0.100000)"
fill="#000000" stroke="none">
<path d="M219 2156 c-86 -31 -155 -93 -193 -175 -21 -46 -21 -53 -21 -891 l0
-845 23 -46 c36 -72 87 -125 150 -156 l57 -28 832 -3 c829 -2 831 -2 890 19
42 16 73 37 114 78 95 97 89 33 89 981 0 932 4 880 -77 970 -25 28 -69 63 -97
78 l-51 27 -840 2 c-670 2 -847 0 -876 -11z m1166 -676 c19 -12 35 -25 35 -29
0 -4 -16 -20 -37 -34 -33 -23 -38 -24 -57 -11 -11 7 -37 14 -57 14 -48 0 -79
-36 -79 -91 0 -42 19 -59 64 -59 25 0 27 4 40 63 6 24 10 27 51 27 51 0 50 1
34 -84 -13 -64 -30 -78 -107 -91 -62 -10 -126 10 -162 52 -25 28 -30 42 -30
84 0 87 49 151 138 180 43 13 128 3 167 -21z m287 20 c20 -6 50 -26 67 -46 26
-29 31 -43 31 -85 0 -92 -49 -155 -139 -179 -70 -19 -128 -5 -173 40 -35 34
-38 43 -38 91 0 88 40 144 126 174 47 17 77 18 126 5z m-1002 -15 c37 -19 50
-43 50 -93 0 -74 -63 -122 -159 -122 l-49 0 -7 -40 -7 -40 -54 0 c-30 0 -54 2
-54 3 0 2 14 71 30 152 17 81 30 150 30 152 0 1 43 3 95 3 66 0 105 -5 125
-15z m309 -22 c18 -66 61 -252 61 -263 0 -5 -25 -10 -55 -10 -52 0 -55 1 -55
25 0 24 -3 25 -59 25 -52 0 -61 -3 -75 -25 -14 -22 -24 -25 -72 -25 -31 0 -54
4 -52 8 2 5 45 75 97 155 l94 147 53 0 c53 0 53 0 63 -37z m55 -328 c-34 -25
-60 -35 -86 -35 l-36 0 31 35 c28 32 35 35 86 35 l55 0 -50 -35z m-32 -65 c20
-6 50 -26 67 -46 26 -29 31 -43 31 -85 0 -92 -49 -155 -139 -179 -70 -19 -128
-5 -173 40 -35 34 -38 43 -38 91 0 88 40 144 126 174 47 17 77 18 126 5z
m-517 -83 l32 -79 63 81 62 81 50 0 c42 0 49 -3 44 -17 -3 -10 -17 -80 -32
-155 l-27 -138 -50 0 -49 0 7 38 c3 20 9 48 12 62 4 22 1 21 -31 -15 -19 -22
-35 -43 -36 -47 0 -5 -14 -8 -30 -8 -27 0 -33 6 -53 52 l-23 51 -13 -66 -13
-67 -49 0 c-27 0 -49 2 -49 3 0 2 14 71 30 152 17 81 30 150 30 152 0 2 21 3
46 1 l46 -3 33 -78z m759 14 c9 -39 16 -77 16 -86 0 -26 14 -10 66 75 l49 80
112 0 c62 0 113 -2 113 -3 0 -2 -13 -71 -30 -152 -16 -81 -30 -150 -30 -152 0
-1 -25 -3 -55 -3 -30 0 -55 3 -55 8 1 4 14 70 30 147 15 77 27 141 25 143 -2
2 -45 -65 -96 -148 l-94 -150 -55 2 -54 3 -33 140 c-18 77 -32 146 -33 153 0
8 17 12 54 12 l54 0 16 -69z m516 65 c0 -2 -9 -48 -20 -101 -11 -53 -20 -103
-20 -111 0 -11 16 -14 65 -14 70 0 73 -3 59 -57 -6 -22 -10 -23 -130 -23 -68
0 -124 2 -124 3 0 2 14 71 30 152 17 81 30 150 30 152 0 1 25 3 55 3 30 0 55
-2 55 -4z"/>
<path d="M1551 1394 c-23 -30 -28 -93 -9 -112 20 -20 72 -14 96 11 25 26 30
95 10 115 -22 22 -75 14 -97 -14z"/>
<path d="M540 1408 c0 -7 -3 -23 -6 -35 -6 -20 -3 -23 22 -23 40 0 56 13 52
41 -2 19 -10 25 -35 27 -22 2 -33 -1 -33 -10z"/>
<path d="M878 1362 c-23 -39 -23 -42 7 -42 26 0 28 7 17 48 -7 23 -7 23 -24
-6z"/>
<path d="M881 964 c-23 -30 -28 -93 -9 -112 20 -20 72 -14 96 11 25 26 30 95
10 115 -22 22 -75 14 -97 -14z"/>
</g>
</svg>
