
<svg version="1.0" 
 width="618.000000pt" height="267.000000pt" viewBox="0 0 618.000000 267.000000"
 preserveAspectRatio="xMidYMid meet">

<g transform="translate(0.000000,267.000000) scale(0.100000,-0.100000)"
fill="#376295" stroke="none">
<path d="M1490 2550 c-57 -32 -106 -62 -107 -67 -2 -5 25 -23 59 -41 35 -18
83 -45 108 -59 25 -15 63 -36 85 -48 22 -12 56 -31 75 -42 19 -11 56 -32 83
-46 116 -66 144 -82 189 -108 27 -16 50 -29 52 -29 2 0 48 -25 102 -56 55 -31
117 -66 139 -79 119 -67 145 -91 145 -135 0 -24 -10 -22 155 -21 89 1 133 5
142 14 7 7 14 41 15 76 3 60 2 64 -29 90 -17 14 -53 37 -80 50 -26 14 -59 32
-73 41 -14 9 -59 35 -100 57 -41 22 -99 55 -128 72 -29 17 -55 31 -58 31 -2 0
-21 11 -42 23 -32 20 -316 180 -452 255 -25 13 -68 37 -96 53 -28 16 -58 29
-65 28 -8 -1 -61 -27 -119 -59z"/>
<path d="M1150 2439 c-41 -23 -149 -83 -240 -134 -91 -51 -185 -104 -210 -118
-25 -13 -110 -62 -190 -107 -80 -45 -170 -96 -200 -112 -97 -53 -144 -81 -177
-106 -31 -23 -33 -28 -33 -87 0 -105 -121 -95 1133 -95 l1096 0 15 22 c22 31
21 120 -1 147 -15 17 -524 311 -540 311 -3 0 -17 8 -31 18 -15 11 -56 35 -92
54 -36 20 -119 66 -185 103 -169 94 -262 145 -266 145 -2 0 -38 -19 -79 -41z
m137 -329 c42 -25 65 -62 65 -102 1 -82 -53 -132 -135 -125 -86 7 -137 89
-103 164 33 74 110 102 173 63z"/>
<path d="M2420 1712 c0 -10 -13 -31 -30 -47 -26 -25 -38 -29 -110 -33 l-80 -5
0 -69 c0 -67 -2 -72 -35 -105 l-35 -35 0 -314 0 -314 154 0 c137 0 155 2 160
17 4 10 6 189 5 398 l-2 380 26 15 c32 18 50 57 45 96 -3 27 -7 29 -50 32 -41
3 -48 0 -48 -16z"/>
<path d="M4952 1624 c-12 -8 -22 -19 -22 -25 0 -14 28 -11 33 4 3 10 9 10 26
0 30 -18 47 -17 31 3 -24 28 -46 34 -68 18z"/>
<path d="M333 1593 c-8 -2 -13 -22 -13 -44 0 -30 6 -46 26 -64 15 -14 31 -25
35 -25 5 0 9 -177 9 -394 0 -323 2 -396 14 -405 9 -8 65 -11 177 -9 l164 3 3
397 2 397 34 20 c35 22 54 71 41 111 -6 19 -17 20 -243 19 -130 0 -243 -3
-249 -6z"/>
<path d="M980 1549 c0 -40 5 -56 22 -70 11 -11 27 -19 34 -19 11 0 14 -75 16
-402 l3 -403 175 0 175 0 3 400 3 400 32 20 c29 19 32 25 32 70 l0 50 -247 3
-248 2 0 -51z"/>
<path d="M1637 1594 c-4 -4 -7 -25 -7 -46 0 -38 34 -88 60 -88 7 0 10 -126 10
-393 0 -292 3 -396 12 -405 15 -15 334 -17 343 -2 3 5 6 183 5 394 0 300 2
387 12 395 7 6 24 19 37 30 20 15 25 27 25 67 l1 49 -246 3 c-135 1 -248 -1
-252 -4z"/>
<path d="M2900 1556 c0 -10 13 -16 43 -18 l42 -3 5 -133 c3 -72 8 -132 13
-132 4 0 11 0 17 0 5 0 11 55 12 133 l3 132 43 3 c28 2 42 7 39 15 -2 8 -39
13 -110 15 -89 2 -107 0 -107 -12z"/>
<path d="M3167 1563 c-4 -3 -7 -71 -7 -150 0 -134 1 -143 19 -143 16 0 19 8
18 58 l0 57 36 3 c31 3 38 -1 50 -25 8 -15 18 -43 22 -60 7 -37 22 -50 37 -35
11 11 -8 88 -29 113 -13 16 -8 49 7 49 4 0 12 13 18 28 13 38 -6 84 -42 100
-29 13 -118 17 -129 5z m121 -43 c26 -24 27 -38 7 -67 -17 -24 -72 -40 -87
-25 -8 8 -13 65 -9 105 2 16 68 6 89 -13z"/>
<path d="M3493 1564 c-14 -6 -110 -291 -100 -300 12 -12 37 17 49 58 l11 39
56 -3 c56 -3 56 -3 69 -43 7 -22 18 -43 25 -47 27 -16 26 13 -3 98 -17 49 -38
112 -47 139 -20 60 -31 70 -60 59z m40 -102 c3 -15 8 -37 12 -49 7 -21 4 -23
-34 -23 -45 0 -48 6 -30 61 6 19 13 40 15 48 6 20 31 -4 37 -37z"/>
<path d="M3684 1557 c-2 -7 -3 -73 -2 -147 3 -119 5 -135 21 -138 15 -3 17 7
17 107 0 61 3 111 8 111 4 -1 26 -33 49 -73 65 -112 100 -157 118 -151 12 5
15 31 15 149 0 134 -7 172 -28 150 -4 -4 -7 -56 -6 -115 1 -86 -2 -107 -13
-103 -7 3 -13 9 -13 14 0 5 -29 54 -65 109 -61 94 -89 118 -101 87z"/>
<path d="M4004 1547 c-19 -17 -27 -33 -27 -55 0 -39 15 -58 74 -88 49 -24 65
-49 54 -83 -8 -26 -37 -34 -91 -26 -36 5 -44 3 -44 -9 0 -19 57 -31 105 -22
38 8 75 47 75 81 0 32 -27 62 -85 93 -55 30 -66 53 -38 84 14 16 27 19 61 15
36 -4 43 -2 40 12 -2 11 -16 17 -49 19 -38 2 -52 -2 -75 -21z"/>
<path d="M4212 1419 c2 -108 7 -154 15 -156 8 -3 13 16 15 64 l3 68 55 5 c30
3 55 10 55 15 0 6 -25 12 -55 15 l-55 5 0 50 0 50 63 3 c93 4 77 26 -22 30
l-77 3 3 -152z"/>
<path d="M4430 1416 l0 -154 82 2 c55 1 83 5 85 14 4 9 -12 12 -54 12 -67 0
-83 11 -83 56 0 57 7 64 66 64 41 0 54 4 54 15 0 10 -15 15 -57 17 -58 3 -58
3 -61 36 -5 49 11 62 75 62 39 0 54 4 51 13 -3 8 -31 13 -81 15 l-77 3 0 -155z"/>
<path d="M4657 1563 c-4 -3 -7 -70 -7 -149 0 -112 3 -143 14 -147 22 -9 26 2
26 63 0 31 2 59 5 62 3 3 20 2 38 -1 34 -7 66 -54 67 -97 0 -23 25 -40 35 -23
8 12 -22 116 -35 124 -6 4 -1 17 10 33 40 54 33 99 -20 127 -29 15 -121 21
-133 8z m121 -39 c46 -32 18 -92 -44 -96 l-39 -3 -3 58 -3 57 33 0 c19 0 44
-7 56 -16z"/>
<path d="M4899 1563 c0 -4 -1 -72 -2 -151 l-2 -142 30 -6 c43 -8 135 -1 138
11 1 6 -23 11 -53 13 -71 4 -82 14 -78 71 l3 46 58 3 c75 4 72 25 -4 32 l-54
5 0 45 0 45 63 3 c44 2 62 7 59 15 -4 14 -157 23 -158 10z"/>
<path d="M5127 1563 c-10 -9 -9 -291 1 -297 20 -12 27 16 27 111 0 57 4 104 8
105 5 2 37 -43 71 -100 73 -120 79 -127 99 -116 23 13 20 299 -3 299 -12 0
-15 -20 -15 -117 0 -111 0 -116 -17 -101 -10 9 -18 20 -18 24 0 5 -27 52 -61
104 -56 88 -75 106 -92 88z"/>
<path d="M5483 1555 c-60 -27 -90 -96 -78 -179 13 -84 92 -130 191 -112 51 10
38 32 -17 28 -59 -4 -95 11 -119 50 -58 95 9 207 116 195 48 -5 59 0 43 20
-15 17 -94 16 -136 -2z"/>
<path d="M5685 1558 c-3 -8 -4 -77 -3 -153 3 -117 6 -140 18 -140 13 0 15 23
15 149 0 111 -3 150 -12 153 -7 3 -15 -2 -18 -9z"/>
<path d="M5872 1558 c-20 -27 -101 -283 -92 -292 14 -14 27 1 43 49 14 40 14
40 70 43 l56 3 12 -41 c12 -40 42 -69 53 -51 3 5 -1 25 -9 45 -9 20 -30 80
-47 134 -33 103 -43 122 -63 122 -7 0 -17 -6 -23 -12z m42 -95 c23 -68 22 -73
-24 -73 -22 0 -40 3 -40 7 0 17 35 113 41 113 4 0 14 -21 23 -47z"/>
<path d="M4822 1133 c-35 -52 -35 -53 -3 -53 29 0 101 50 101 71 0 5 -18 9
-39 9 -32 0 -43 -5 -59 -27z"/>
<path d="M4407 1049 c-63 -10 -121 -51 -155 -108 -23 -40 -27 -57 -27 -126 1
-96 25 -152 83 -190 48 -32 133 -48 203 -38 51 8 54 10 54 38 l0 30 -80 0
c-68 0 -85 4 -113 23 -41 30 -62 80 -62 146 1 59 22 104 65 138 25 20 40 23
107 22 75 -1 79 0 84 23 4 14 3 28 -2 32 -14 13 -104 19 -157 10z"/>
<path d="M2958 1044 c-5 -4 -8 -108 -8 -231 l0 -223 101 0 c152 0 209 37 209
135 0 42 -5 52 -36 82 l-36 34 25 25 c50 50 43 114 -16 158 -24 17 -46 22
-130 24 -56 2 -105 0 -109 -4z m168 -60 c58 -15 45 -105 -17 -118 -76 -15 -79
-13 -79 59 l0 65 38 0 c20 0 47 -3 58 -6z m8 -195 c33 -16 50 -57 37 -92 -12
-31 -46 -47 -101 -47 l-38 0 -4 59 c-5 86 -3 91 42 91 22 0 50 -5 64 -11z"/>
<path d="M3426 958 c-16 -51 -49 -153 -73 -226 -24 -72 -43 -135 -43 -138 0
-3 19 -4 41 -2 41 3 42 5 58 53 24 75 25 75 100 75 76 0 69 6 102 -92 12 -35
16 -38 51 -38 33 0 38 3 37 23 0 12 -31 114 -68 227 l-68 205 -54 3 -54 3 -29
-93z m111 -79 c12 -41 23 -80 23 -86 0 -9 -18 -13 -56 -13 -64 0 -61 -13 -27
112 10 38 22 67 27 65 6 -2 20 -37 33 -78z"/>
<path d="M3780 820 l0 -230 35 0 35 0 0 170 c0 94 4 170 9 170 5 0 14 -14 21
-31 7 -17 48 -89 92 -162 43 -72 78 -135 78 -139 0 -5 21 -8 46 -6 l46 3 1
225 2 225 -37 3 -38 3 0 -160 c0 -89 -4 -161 -9 -161 -5 0 -14 15 -22 33 -7
17 -47 89 -88 159 l-76 128 -47 0 -48 0 0 -230z"/>
<path d="M4765 1038 c-10 -30 -75 -230 -103 -318 -17 -52 -33 -103 -37 -112
-6 -16 -1 -18 36 -18 l44 0 20 63 20 62 75 0 75 0 20 -62 20 -63 43 0 c49 0
49 -14 6 125 -14 44 -29 89 -33 100 -5 11 -24 67 -42 125 l-34 105 -53 3 c-36
2 -54 -1 -57 -10z m105 -240 c0 -15 -9 -18 -56 -18 -49 0 -56 2 -51 18 3 9 13
44 23 77 28 96 35 98 61 14 12 -41 23 -82 23 -91z"/>
<path d="M5097 1043 c-4 -3 -7 -107 -7 -230 l0 -223 40 0 39 0 3 93 3 92 29 3
c60 7 79 -15 111 -130 l16 -58 40 0 c42 0 49 13 30 62 -5 13 -14 41 -21 63 -7
22 -21 52 -32 67 l-19 27 32 29 c29 26 33 35 33 85 1 62 -17 90 -71 113 -33
14 -214 20 -226 7z m197 -74 c31 -25 34 -63 7 -99 -16 -20 -28 -24 -73 -25
l-53 0 -3 49 c-5 83 1 96 52 96 29 0 52 -7 70 -21z"/>
<path d="M5487 1043 c-4 -3 -7 -107 -7 -230 l0 -223 45 0 45 0 0 230 0 230
-38 0 c-21 0 -42 -3 -45 -7z"/>
<path d="M5775 1038 c-2 -7 -20 -65 -41 -128 -20 -63 -47 -149 -61 -190 -48
-143 -48 -132 0 -128 41 3 42 4 62 63 l22 60 71 3 72 3 14 -33 c7 -18 18 -46
23 -63 7 -26 13 -30 51 -33 23 -2 42 1 42 6 0 6 -22 77 -49 158 -26 82 -58
182 -71 222 l-23 72 -54 0 c-34 0 -55 -5 -58 -12z m104 -211 c6 -16 9 -33 5
-38 -6 -10 -97 -13 -106 -4 -5 5 30 131 48 175 4 9 13 -8 24 -45 10 -33 23
-73 29 -88z"/>
<path d="M2130 676 c0 -32 2 -34 44 -40 55 -9 92 -44 101 -97 l7 -39 144 0
c168 0 164 -3 164 109 0 102 3 101 -252 101 l-208 0 0 -34z"/>
<path d="M262 558 c-7 -7 -12 -42 -12 -88 0 -62 4 -80 18 -93 17 -16 98 -17
963 -17 568 0 950 4 959 10 19 12 27 148 11 179 l-12 21 -957 0 c-732 0 -961
-3 -970 -12z"/>
<path d="M2277 413 c-12 -20 -18 -75 -9 -69 19 12 94 -6 119 -29 16 -13 28
-37 32 -61 l6 -39 139 -3 c95 -2 143 1 153 9 10 9 13 32 11 93 -3 74 -5 81
-28 93 -28 14 -415 19 -423 6z"/>
<path d="M117 262 c-13 -14 -17 -38 -17 -90 0 -62 3 -73 22 -86 20 -14 142
-16 1110 -16 l1088 0 21 21 c18 18 21 30 17 89 -2 37 -10 75 -17 84 -12 15
-111 16 -1111 16 -1050 0 -1098 -1 -1113 -18z"/>
</g>
</svg>
